<svg width="150" height="150" viewBox="0 0 150 150" fill="none" xmlns="http://www.w3.org/2000/svg">
<path d="M68.75 112.5C68.75 119.375 63.125 125 56.25 125C49.375 125 43.75 119.375 43.75 112.5C43.75 105.625 49.375 100 56.25 100C63.125 100 68.75 105.625 68.75 112.5ZM56.25 62.5C49.375 62.5 43.75 68.125 43.75 75C43.75 81.875 49.375 87.5 56.25 87.5C63.125 87.5 68.75 81.875 68.75 75C68.75 68.125 63.125 62.5 56.25 62.5ZM56.25 25C49.375 25 43.75 30.625 43.75 37.5C43.75 44.375 49.375 50 56.25 50C63.125 50 68.75 44.375 68.75 37.5C68.75 30.625 63.125 25 56.25 25ZM93.75 50C100.625 50 106.25 44.375 106.25 37.5C106.25 30.625 100.625 25 93.75 25C86.875 25 81.25 30.625 81.25 37.5C81.25 44.375 86.875 50 93.75 50ZM93.75 62.5C86.875 62.5 81.25 68.125 81.25 75C81.25 81.875 86.875 87.5 93.75 87.5C100.625 87.5 106.25 81.875 106.25 75C106.25 68.125 100.625 62.5 93.75 62.5ZM93.75 100C86.875 100 81.25 105.625 81.25 112.5C81.25 119.375 86.875 125 93.75 125C100.625 125 106.25 119.375 106.25 112.5C106.25 105.625 100.625 100 93.75 100Z" fill="#00C59E"/>
</svg>
