<svg width="150" height="150" viewBox="0 0 150 150" fill="none" xmlns="http://www.w3.org/2000/svg">
<path d="M45 110C56.0457 110 65 101.045 65 89.9998C65 78.9541 56.0457 69.9998 45 69.9998C33.9543 69.9998 25 78.9541 25 89.9998C25 101.045 33.9543 110 45 110Z" fill="#0696DE"/>
<path d="M92.5 125C99.4036 125 105 119.404 105 112.5C105 105.596 99.4036 100 92.5 100C85.5964 100 80 105.596 80 112.5C80 119.404 85.5964 125 92.5 125Z" fill="#0696DE"/>
<path d="M95 85C111.569 85 125 71.5685 125 55C125 38.4315 111.569 25 95 25C78.4315 25 65 38.4315 65 55C65 71.5685 78.4315 85 95 85Z" fill="#0696DE"/>
</svg>
