<svg width="150" height="150" viewBox="0 0 150 150" fill="none" xmlns="http://www.w3.org/2000/svg">
<path d="M93.75 25C66.125 25 43.75 47.375 43.75 75C43.75 102.625 66.125 125 93.75 125C121.375 125 143.75 102.625 143.75 75C143.75 47.375 121.375 25 93.75 25ZM93.75 112.5C73.0625 112.5 56.25 95.6875 56.25 75C56.25 54.3125 73.0625 37.5 93.75 37.5C114.438 37.5 131.25 54.3125 131.25 75C131.25 95.6875 114.438 112.5 93.75 112.5Z" fill="#00C59E"/>
<path d="M18.75 75C18.75 58.6875 29.1875 44.8125 43.75 39.6875V26.625C22.1875 32.1875 6.25 51.6875 6.25 75C6.25 98.3125 22.1875 117.812 43.75 123.375V110.312C29.1875 105.188 18.75 91.3125 18.75 75Z" fill="#00C59E"/>
</svg>
