<svg width="150" height="150" viewBox="0 0 150 150" fill="none" xmlns="http://www.w3.org/2000/svg">
<path d="M75 12.5C40.5625 12.5 12.5 40.5625 12.5 75C12.5 109.438 40.5625 137.5 75 137.5C109.438 137.5 137.5 109.438 137.5 75C137.5 40.5625 109.438 12.5 75 12.5ZM75 125C47.4375 125 25 102.562 25 75C25 47.4375 47.4375 25 75 25C102.562 25 125 47.4375 125 75C125 102.562 102.562 125 75 125ZM93.75 75C93.75 85.375 85.375 93.75 75 93.75C64.625 93.75 56.25 85.375 56.25 75C56.25 64.625 64.625 56.25 75 56.25C85.375 56.25 93.75 64.625 93.75 75Z" fill="#F82125"/>
</svg>
