<svg width="150" height="150" viewBox="0 0 150 150" fill="none" xmlns="http://www.w3.org/2000/svg">
<path d="M103.125 18.75C92.25 18.75 81.8125 23.8125 75 31.8125C68.1875 23.8125 57.75 18.75 46.875 18.75C27.625 18.75 12.5 33.875 12.5 53.125C12.5 76.75 33.75 96 65.9375 125.25L75 133.438L84.0625 125.188C116.25 96 137.5 76.75 137.5 53.125C137.5 33.875 122.375 18.75 103.125 18.75ZM75.625 115.937L75 116.562L74.375 115.937C44.625 89 25 71.1875 25 53.125C25 40.625 34.375 31.25 46.875 31.25C56.5 31.25 65.875 37.4375 69.1875 46H80.875C84.125 37.4375 93.5 31.25 103.125 31.25C115.625 31.25 125 40.625 125 53.125C125 71.1875 105.375 89 75.625 115.937Z" fill="#00B861"/>
</svg>
