<svg width="150" height="150" viewBox="0 0 150 150" fill="none" xmlns="http://www.w3.org/2000/svg">
<path d="M112.5 50H106.25V37.5C106.25 20.25 92.25 6.25 75 6.25C57.75 6.25 43.75 20.25 43.75 37.5V50H37.5C30.625 50 25 55.625 25 62.5V125C25 131.875 30.625 137.5 37.5 137.5H112.5C119.375 137.5 125 131.875 125 125V62.5C125 55.625 119.375 50 112.5 50ZM75 106.25C68.125 106.25 62.5 100.625 62.5 93.75C62.5 86.875 68.125 81.25 75 81.25C81.875 81.25 87.5 86.875 87.5 93.75C87.5 100.625 81.875 106.25 75 106.25ZM94.375 50H55.625V37.5C55.625 26.8125 64.3125 18.125 75 18.125C85.6875 18.125 94.375 26.8125 94.375 37.5V50Z" fill="#F37500"/>
</svg>
