<svg width="150" height="150" viewBox="0 0 150 150" fill="none" xmlns="http://www.w3.org/2000/svg">
<path d="M137.5 32.375L66.1875 103.75L39.6875 77.25L48.5 68.4375L66.1875 86.125L128.688 23.625L137.5 32.375ZM123.688 63.875C124.5 67.4375 125 71.1875 125 75C125 102.625 102.625 125 75 125C47.375 125 25 102.625 25 75C25 47.375 47.375 25 75 25C84.875 25 94 27.875 101.75 32.8125L110.75 23.8125C100.625 16.6875 88.3125 12.5 75 12.5C40.5 12.5 12.5 40.5 12.5 75C12.5 109.5 40.5 137.5 75 137.5C109.5 137.5 137.5 109.5 137.5 75C137.5 67.5625 136.125 60.4375 133.75 53.8125L123.688 63.875Z" fill="#F5C700"/>
</svg>
